<svg width="113" height="96" viewBox="0 0 113 96" fill="none" xmlns="http://www.w3.org/2000/svg">
<path d="M84.7229 0.163167L84.6235 0H28.305L-7.62939e-06 47.9167L28.2056 95.6702L28.305 95.8333H84.6235L112.928 47.9167L84.7229 0.163167ZM36.7415 21.1641L23.1556 44.1638H10.259L30.2601 10.3067L36.7349 21.1641H36.7415ZM42.706 77.7762H70.1827L76.6111 88.7764H36.2776L42.706 77.7762ZM70.2556 17.6084H42.6795L36.3836 7.05697H76.5448L70.2489 17.6084H70.2556ZM42.7127 70.7192L29.1135 47.6923L42.7127 24.6654H70.2092L83.8083 47.6923L70.2092 70.7192H42.7127ZM89.7728 44.1638L76.1936 21.1709L82.6684 10.3135L102.663 44.1638H89.7728ZM36.7548 74.2477L30.2137 85.445L10.0005 51.2276H23.1556L36.7548 74.2477ZM102.935 51.2208L82.7016 85.4722L76.1604 74.2749L89.7795 51.2208H102.935Z" fill="#AE0822"/>
</svg>
